solid Visualization Toolkit generated SLA File
 facet normal 0.07075560952197571 -0.021849863662497568 -0.99725434427687698
  outer loop
   vertex 30.431411743164062 5.9783458709716797 21.5487060546875
   vertex 22.156684875488281 15.431767463684082 20.754486083984375
   vertex 37.474349975585938 32.239524841308594 21.4730224609375
  endloop
 endfacet
 facet normal 0.27495421587826857 -0.076501568875611339 -0.9584089362742485
  outer loop
   vertex 48.709358215332031 19.794052124023438 25.689605712890625
   vertex 30.431411743164062 5.9783458709716797 21.5487060546875
   vertex 37.474349975585938 32.239524841308594 21.4730224609375
  endloop
 endfacet
 facet normal 0.43950766424098597 -0.33120790799931871 -0.83494570766735943
  outer loop
   vertex 37.542861938476562 0.88911604881286621 27.3109130859375
   vertex 30.431411743164062 5.9783458709716797 21.5487060546875
   vertex 48.709358215332031 19.794052124023438 25.689605712890625
  endloop
 endfacet
 facet normal -0.41782501480975781 0.41532659497688967 -0.80803841276521515
  outer loop
   vertex 37.474349975585938 32.239524841308594 21.4730224609375
   vertex 22.156684875488281 15.431767463684082 20.754486083984375
   vertex 20.146186828613281 29.563980102539062 29.057952880859375
  endloop
 endfacet
 facet normal -0.25759539036708812 -0.30257328881916218 -0.91765680935455574
  outer loop
   vertex 0.7130584716796875 -7.6464471817016602 34.38336181640625
   vertex 22.156684875488281 15.431767463684082 20.754486083984375
   vertex 30.431411743164062 5.9783458709716797 21.5487060546875
  endloop
 endfacet
 facet normal 0.54846791071264844 0.22199049199772156 -0.80616572265329645
  outer loop
   vertex 48.709358215332031 19.794052124023438 25.689605712890625
   vertex 37.474349975585938 32.239524841308594 21.4730224609375
   vertex 50.103767395019531 39.962295532226562 32.191925048828125
  endloop
 endfacet
 facet normal 0.41929314082988617 0.42659433886989029 -0.80138039163506525
  outer loop
   vertex 37.474349975585938 32.239524841308594 21.4730224609375
   vertex 41.27093505859375 46.170783996582031 30.875396728515625
   vertex 50.103767395019531 39.962295532226562 32.191925048828125
  endloop
 endfacet
 facet normal -0.6511365995995031 0.31348252541463223 -0.69119449861935456
  outer loop
   vertex 22.156684875488281 15.431767463684082 20.754486083984375
   vertex -5.4293899536132812 4.767509937286377 41.905181884765625
   vertex 20.146186828613281 29.563980102539062 29.057952880859375
  endloop
 endfacet
 facet normal -0.39929424119285212 0.58516566172066553 -0.70579406153157742
  outer loop
   vertex 37.474349975585938 32.239524841308594 21.4730224609375
   vertex 20.146186828613281 29.563980102539062 29.057952880859375
   vertex 41.27093505859375 46.170783996582031 30.875396728515625
  endloop
 endfacet
 facet normal -0.63658430233145502 0.14407698295998747 -0.75762936123563895
  outer loop
   vertex 22.156684875488281 15.431767463684082 20.754486083984375
   vertex 0.7130584716796875 -7.6464471817016602 34.38336181640625
   vertex -5.4293899536132812 4.767509937286377 41.905181884765625
  endloop
 endfacet
 facet normal 0.094237371601324657 -0.68561201521389514 -0.72184172945876124
  outer loop
   vertex 37.542861938476562 0.88911604881286621 27.3109130859375
   vertex 8.0034408569335938 -25.118680953979492 48.156951904296875
   vertex 30.431411743164062 5.9783458709716797 21.5487060546875
  endloop
 endfacet
 facet normal 0.98341929617584412 -0.009607842592958717 -0.18109162672447415
  outer loop
   vertex 48.709358215332031 19.794052124023438 25.689605712890625
   vertex 50.103767395019531 39.962295532226562 32.191925048828125
   vertex 51.558929443359375 19.998369216918945 41.15338134765625
  endloop
 endfacet
 facet normal 0.41323157538071875 0.41614787702676787 -0.80997568454521118
  outer loop
   vertex 50.103767395019531 39.962295532226562 32.191925048828125
   vertex 41.27093505859375 46.170783996582031 30.875396728515625
   vertex 52.409095764160156 46.711769104003906 36.835784912109375
  endloop
 endfacet
 facet normal 0.46855858479609525 -0.21984787204236292 -0.85563997438895134
  outer loop
   vertex 52.409095764160156 46.711769104003906 36.835784912109375
   vertex 41.27093505859375 46.170783996582031 30.875396728515625
   vertex 53.175804138183594 68.080741882324219 31.765106201171875
  endloop
 endfacet
 facet normal -0.70865809992240014 0.40841500547974058 -0.57532675994895033
  outer loop
   vertex 41.27093505859375 46.170783996582031 30.875396728515625
   vertex 47.666702270507812 64.716117858886719 36.162445068359375
   vertex 53.175804138183594 68.080741882324219 31.765106201171875
  endloop
 endfacet
 facet normal 0.49435084950475283 -0.21744779797212893 -0.84162562505605876
  outer loop
   vertex 53.175804138183594 68.080741882324219 31.765106201171875
   vertex 59.716796875 64.722358703613281 36.474822998046875
   vertex 52.409095764160156 46.711769104003906 36.835784912109375
  endloop
 endfacet
 facet normal -0.64089542989716031 0.048110275682713026 -0.76611908298297038
  outer loop
   vertex 46.75054931640625 75.419296264648438 37.600982666015625
   vertex 53.175804138183594 68.080741882324219 31.765106201171875
   vertex 47.666702270507812 64.716117858886719 36.162445068359375
  endloop
 endfacet
 facet normal 0.84574532230191102 -0.51233792422166025 -0.14907951304145328
  outer loop
   vertex 37.542861938476562 0.88911604881286621 27.3109130859375
   vertex 48.709358215332031 19.794052124023438 25.689605712890625
   vertex 51.558929443359375 19.998369216918945 41.15338134765625
  endloop
 endfacet
 facet normal -0.60868185796965779 0.78606626100273125 -0.10773221009424883
  outer loop
   vertex 41.27093505859375 46.170783996582031 30.875396728515625
   vertex 20.146186828613281 29.563980102539062 29.057952880859375
   vertex 40.537216186523438 46.445369720458984 37.024383544921875
  endloop
 endfacet
 facet normal 0.85954367947218191 -0.4002941436507364 -0.31772513535813751
  outer loop
   vertex 42.630508422851562 0.90318834781646729 41.05682373046875
   vertex 37.542861938476562 0.88911604881286621 27.3109130859375
   vertex 51.558929443359375 19.998369216918945 41.15338134765625
  endloop
 endfacet
 facet normal -0.045846581623154782 -0.63015972653569918 -0.77511083723937457
  outer loop
   vertex 8.0034408569335938 -25.118680953979492 48.156951904296875
   vertex 0.7130584716796875 -7.6464471817016602 34.38336181640625
   vertex 30.431411743164062 5.9783458709716797 21.5487060546875
  endloop
 endfacet
 facet normal 0.63109564685008968 -0.73994002186055752 -0.23282407215720766
  outer loop
   vertex 23.248878479003906 -18.011632919311523 48.63409423828125
   vertex 37.542861938476562 0.88911604881286621 27.3109130859375
   vertex 42.630508422851562 0.90318834781646729 41.05682373046875
  endloop
 endfacet
 facet normal -0.92612235475825033 0.35542304038702205 -0.12637977045033258
  outer loop
   vertex 47.666702270507812 64.716117858886719 36.162445068359375
   vertex 41.27093505859375 46.170783996582031 30.875396728515625
   vertex 40.537216186523438 46.445369720458984 37.024383544921875
  endloop
 endfacet
 facet normal 0.59397149770807744 0.75048678717206263 -0.28977136192277253
  outer loop
   vertex 59.716796875 64.722358703613281 36.474822998046875
   vertex 53.175804138183594 68.080741882324219 31.765106201171875
   vertex 46.75054931640625 75.419296264648438 37.600982666015625
  endloop
 endfacet
 facet normal 0.9361257269477139 -0.084947932952833066 -0.34125133264744206
  outer loop
   vertex 51.558929443359375 19.998369216918945 41.15338134765625
   vertex 50.103767395019531 39.962295532226562 32.191925048828125
   vertex 52.409095764160156 46.711769104003906 36.835784912109375
  endloop
 endfacet
 facet normal 0.6120211461076287 0.7635446414405892 -0.20598470148160722
  outer loop
   vertex 46.75054931640625 75.419296264648438 37.600982666015625
   vertex 52.899574279785156 72.556968688964844 45.2608642578125
   vertex 59.716796875 64.722358703613281 36.474822998046875
  endloop
 endfacet
 facet normal 0.38857297713013211 -0.80322225117843371 -0.45149203387886572
  outer loop
   vertex 8.0034408569335938 -25.118680953979492 48.156951904296875
   vertex 37.542861938476562 0.88911604881286621 27.3109130859375
   vertex 23.248878479003906 -18.011632919311523 48.63409423828125
  endloop
 endfacet
 facet normal -0.7032091379015929 0.080104179468398359 -0.70645610536210468
  outer loop
   vertex -5.4293899536132812 4.767509937286377 41.905181884765625
   vertex 0.7130584716796875 -7.6464471817016602 34.38336181640625
   vertex -18.81964111328125 -14.879280090332031 53.00616455078125
  endloop
 endfacet
 facet normal -0.59901412454035363 0.26931798143895763 0.7540887901797767
  outer loop
   vertex 47.339736938476562 45.711933135986328 42.68994140625
   vertex 47.666702270507812 64.716117858886719 36.162445068359375
   vertex 40.537216186523438 46.445369720458984 37.024383544921875
  endloop
 endfacet
 facet normal 0.74724852759680083 -0.29122052536849474 0.59733595539571438
  outer loop
   vertex 47.339736938476562 45.711933135986328 42.68994140625
   vertex 52.409095764160156 46.711769104003906 36.835784912109375
   vertex 59.716796875 64.722358703613281 36.474822998046875
  endloop
 endfacet
 facet normal -0.65817287064174346 0.74553098451247679 0.10484285136843534
  outer loop
   vertex 13.420326232910156 20.047111511230469 54.508819580078125
   vertex 40.537216186523438 46.445369720458984 37.024383544921875
   vertex 20.146186828613281 29.563980102539062 29.057952880859375
  endloop
 endfacet
 facet normal -0.79743444869462299 -0.14691631672986738 0.58524686749578758
  outer loop
   vertex 47.666702270507812 64.716117858886719 36.162445068359375
   vertex 52.899574279785156 72.556968688964844 45.2608642578125
   vertex 46.75054931640625 75.419296264648438 37.600982666015625
  endloop
 endfacet
 facet normal 0.74629463686095676 0.082990559728069943 0.66042174554491628
  outer loop
   vertex 51.558929443359375 19.998369216918945 41.15338134765625
   vertex 52.409095764160156 46.711769104003906 36.835784912109375
   vertex 47.339736938476562 45.711933135986328 42.68994140625
  endloop
 endfacet
 facet normal 0.67453989108261059 -0.20755170474125059 0.70846187279010342
  outer loop
   vertex 47.339736938476562 45.711933135986328 42.68994140625
   vertex 59.716796875 64.722358703613281 36.474822998046875
   vertex 52.899574279785156 72.556968688964844 45.2608642578125
  endloop
 endfacet
 facet normal -0.90745151897191345 0.15036814276893495 0.39232787608808545
  outer loop
   vertex 47.666702270507812 64.716117858886719 36.162445068359375
   vertex 47.339736938476562 45.711933135986328 42.68994140625
   vertex 52.899574279785156 72.556968688964844 45.2608642578125
  endloop
 endfacet
 facet normal -0.7197535050589049 0.68549689825280746 -0.10976745620265214
  outer loop
   vertex 20.146186828613281 29.563980102539062 29.057952880859375
   vertex -5.4293899536132812 4.767509937286377 41.905181884765625
   vertex -4.2184524536132812 9.4090843200683594 62.951568603515625
  endloop
 endfacet
 facet normal -0.42649080130785821 0.87838420280613638 0.21574704786024185
  outer loop
   vertex -4.2184524536132812 9.4090843200683594 62.951568603515625
   vertex 13.420326232910156 20.047111511230469 54.508819580078125
   vertex 20.146186828613281 29.563980102539062 29.057952880859375
  endloop
 endfacet
 facet normal -0.37525329945644836 0.74802648175877318 0.54739505280431699
  outer loop
   vertex 47.339736938476562 45.711933135986328 42.68994140625
   vertex 40.537216186523438 46.445369720458984 37.024383544921875
   vertex 13.420326232910156 20.047111511230469 54.508819580078125
  endloop
 endfacet
 facet normal 0.6234733037363015 0.055700377952257782 0.77985800465476862
  outer loop
   vertex 47.339736938476562 45.711933135986328 42.68994140625
   vertex 26.126197814941406 12.995908737182617 61.986236572265625
   vertex 51.558929443359375 19.998369216918945 41.15338134765625
  endloop
 endfacet
 facet normal -0.15441239935381126 0.57430184478547219 0.80394912898877036
  outer loop
   vertex 13.420326232910156 20.047111511230469 54.508819580078125
   vertex 26.126197814941406 12.995908737182617 61.986236572265625
   vertex 47.339736938476562 45.711933135986328 42.68994140625
  endloop
 endfacet
 facet normal -0.48210809812289479 -0.51775675119686404 -0.70675294715649684
  outer loop
   vertex -18.81964111328125 -14.879280090332031 53.00616455078125
   vertex 0.7130584716796875 -7.6464471817016602 34.38336181640625
   vertex -15.755764007568359 -24.081745147705078 57.657745361328125
  endloop
 endfacet
 facet normal -0.30222375635772475 -0.66471231548559684 -0.68324105463211371
  outer loop
   vertex -15.755764007568359 -24.081745147705078 57.657745361328125
   vertex 0.7130584716796875 -7.6464471817016602 34.38336181640625
   vertex 8.0034408569335938 -25.118680953979492 48.156951904296875
  endloop
 endfacet
 facet normal 0.80259141186006366 -0.37760650219310421 0.4618012073500446
  outer loop
   vertex 42.630508422851562 0.90318834781646729 41.05682373046875
   vertex 51.558929443359375 19.998369216918945 41.15338134765625
   vertex 11.774513244628906 -25.353195190429688 73.213897705078125
  endloop
 endfacet
 facet normal 0.71819045237319534 -0.68337477714521133 0.13115406239121094
  outer loop
   vertex 23.248878479003906 -18.011632919311523 48.63409423828125
   vertex 42.630508422851562 0.90318834781646729 41.05682373046875
   vertex 11.774513244628906 -25.353195190429688 73.213897705078125
  endloop
 endfacet
 facet normal 0.57384824333163365 0.24276499743127064 0.78215302188727331
  outer loop
   vertex 26.126197814941406 12.995908737182617 61.986236572265625
   vertex 15.37664794921875 -0.6295585036277771 74.102020263671875
   vertex 51.558929443359375 19.998369216918945 41.15338134765625
  endloop
 endfacet
 facet normal 0.42327269507719062 -0.90312449907986825 -0.072155143710123701
  outer loop
   vertex 23.248878479003906 -18.011632919311523 48.63409423828125
   vertex 11.774513244628906 -25.353195190429688 73.213897705078125
   vertex 8.0034408569335938 -25.118680953979492 48.156951904296875
  endloop
 endfacet
 facet normal 0.70665145313517153 -0.12795426573872801 0.69589613424793029
  outer loop
   vertex 11.774513244628906 -25.353195190429688 73.213897705078125
   vertex 51.558929443359375 19.998369216918945 41.15338134765625
   vertex 15.37664794921875 -0.6295585036277771 74.102020263671875
  endloop
 endfacet
 facet normal -0.056615259511426271 0.67656508242112612 0.73420324273252058
  outer loop
   vertex 26.126197814941406 12.995908737182617 61.986236572265625
   vertex 13.420326232910156 20.047111511230469 54.508819580078125
   vertex -4.2184524536132812 9.4090843200683594 62.951568603515625
  endloop
 endfacet
 facet normal -0.096091770661116183 0.9170803225581674 0.38694967836634658
  outer loop
   vertex 26.126197814941406 12.995908737182617 61.986236572265625
   vertex -4.2184524536132812 9.4090843200683594 62.951568603515625
   vertex 3.576995849609375 6.6405520439147949 71.44891357421875
  endloop
 endfacet
 facet normal -0.49793524886158069 0.85244834639889988 -0.15934963025666868
  outer loop
   vertex -4.2184524536132812 9.4090843200683594 62.951568603515625
   vertex -5.4293899536132812 4.767509937286377 41.905181884765625
   vertex -40.992027282714844 -7.9882378578186035 84.793731689453125
  endloop
 endfacet
 facet normal -0.22473377614731535 -0.85425355899604327 -0.46877029214868332
  outer loop
   vertex -15.755764007568359 -24.081745147705078 57.657745361328125
   vertex 8.0034408569335938 -25.118680953979492 48.156951904296875
   vertex -18.144378662109375 -33.342300415039062 75.67864990234375
  endloop
 endfacet
 facet normal -0.78263109215680182 0.20040587246672639 -0.58934375356857882
  outer loop
   vertex -40.992027282714844 -7.9882378578186035 84.793731689453125
   vertex -5.4293899536132812 4.767509937286377 41.905181884765625
   vertex -18.81964111328125 -14.879280090332031 53.00616455078125
  endloop
 endfacet
 facet normal -0.40307954711719285 0.91383890970797399 0.049247596891017743
  outer loop
   vertex -40.992027282714844 -7.9882378578186035 84.793731689453125
   vertex -17.702823638916016 2.7730419635772705 75.7237548828125
   vertex -4.2184524536132812 9.4090843200683594 62.951568603515625
  endloop
 endfacet
 facet normal 0.28059532429910272 -0.95845960556134802 -0.051200082897067713
  outer loop
   vertex 11.774513244628906 -25.353195190429688 73.213897705078125
   vertex -16.350048065185547 -34.534496307373047 90.953826904296875
   vertex 8.0034408569335938 -25.118680953979492 48.156951904296875
  endloop
 endfacet
 facet normal 0.20149523698443508 -0.97440022334203569 -0.099718976246135668
  outer loop
   vertex -18.144378662109375 -33.342300415039062 75.67864990234375
   vertex 8.0034408569335938 -25.118680953979492 48.156951904296875
   vertex -16.350048065185547 -34.534496307373047 90.953826904296875
  endloop
 endfacet
 facet normal -0.6496319364764338 -0.50399417393889778 -0.56918206203773392
  outer loop
   vertex -40.683498382568359 -19.820846557617188 82.3359375
   vertex -18.81964111328125 -14.879280090332031 53.00616455078125
   vertex -15.755764007568359 -24.081745147705078 57.657745361328125
  endloop
 endfacet
 facet normal -0.55409612321590473 -0.70827265631040026 -0.43740979705547789
  outer loop
   vertex -18.144378662109375 -33.342300415039062 75.67864990234375
   vertex -40.683498382568359 -19.820846557617188 82.3359375
   vertex -15.755764007568359 -24.081745147705078 57.657745361328125
  endloop
 endfacet
 facet normal -0.090297778561082842 0.91955697856757257 0.38244120378773327
  outer loop
   vertex 3.576995849609375 6.6405520439147949 71.44891357421875
   vertex -4.2184524536132812 9.4090843200683594 62.951568603515625
   vertex -17.702823638916016 2.7730419635772705 75.7237548828125
  endloop
 endfacet
 facet normal -0.80572849667915158 0.10024195570193448 -0.58374064442713414
  outer loop
   vertex -40.683498382568359 -19.820846557617188 82.3359375
   vertex -40.992027282714844 -7.9882378578186035 84.793731689453125
   vertex -18.81964111328125 -14.879280090332031 53.00616455078125
  endloop
 endfacet
 facet normal 0.17389638762687104 0.57419945116362414 0.8000343971690953
  outer loop
   vertex 15.37664794921875 -0.6295585036277771 74.102020263671875
   vertex 26.126197814941406 12.995908737182617 61.986236572265625
   vertex 3.576995849609375 6.6405520439147949 71.44891357421875
  endloop
 endfacet
 facet normal 0.40122148091356102 -0.90001306061983821 0.17028744512511929
  outer loop
   vertex -16.350048065185547 -34.534496307373047 90.953826904296875
   vertex 11.774513244628906 -25.353195190429688 73.213897705078125
   vertex -10.260116577148438 -30.399114608764648 98.461639404296875
  endloop
 endfacet
 facet normal 0.81687648665726498 -0.13912416310406056 0.55978323732233881
  outer loop
   vertex 11.774513244628906 -25.353195190429688 73.213897705078125
   vertex 15.37664794921875 -0.6295585036277771 74.102020263671875
   vertex -4.4205703735351562 -20.29218864440918 98.104766845703125
  endloop
 endfacet
 facet normal -0.55556051526647787 -0.73092063014554298 -0.3963679430838068
  outer loop
   vertex -40.683498382568359 -19.820846557617188 82.3359375
   vertex -18.144378662109375 -33.342300415039062 75.67864990234375
   vertex -32.133502960205078 -33.845062255859375 96.21331787109375
  endloop
 endfacet
 facet normal -0.17131070087151112 0.98448746136464527 0.037908866808543044
  outer loop
   vertex 3.576995849609375 6.6405520439147949 71.44891357421875
   vertex -17.702823638916016 2.7730419635772705 75.7237548828125
   vertex -21.225898742675781 1.2617529630661011 99.050872802734375
  endloop
 endfacet
 facet normal -0.066749782552279938 -0.99532234456962043 -0.0698419424819859
  outer loop
   vertex -32.133502960205078 -33.845062255859375 96.21331787109375
   vertex -18.144378662109375 -33.342300415039062 75.67864990234375
   vertex -16.350048065185547 -34.534496307373047 90.953826904296875
  endloop
 endfacet
 facet normal 0.72834492717925614 -0.40120725471546714 0.55546953635273488
  outer loop
   vertex -10.260116577148438 -30.399114608764648 98.461639404296875
   vertex 11.774513244628906 -25.353195190429688 73.213897705078125
   vertex -4.4205703735351562 -20.29218864440918 98.104766845703125
  endloop
 endfacet
 facet normal 0.29621421156151656 0.85176066625032598 0.43215842962713336
  outer loop
   vertex 3.576995849609375 6.6405520439147949 71.44891357421875
   vertex -21.225898742675781 1.2617529630661011 99.050872802734375
   vertex -12.759517669677734 -6.378974437713623 108.30722045898438
  endloop
 endfacet
 facet normal 0.77250824838939103 -0.0026338268515680831 0.63499926702829412
  outer loop
   vertex -4.4205703735351562 -20.29218864440918 98.104766845703125
   vertex 15.37664794921875 -0.6295585036277771 74.102020263671875
   vertex -12.759517669677734 -6.378974437713623 108.30722045898438
  endloop
 endfacet
 facet normal 0.39044075049783172 0.79997378796905017 0.45562919014604292
  outer loop
   vertex 15.37664794921875 -0.6295585036277771 74.102020263671875
   vertex 3.576995849609375 6.6405520439147949 71.44891357421875
   vertex -12.759517669677734 -6.378974437713623 108.30722045898438
  endloop
 endfacet
 facet normal -0.50021140001023834 0.79675085347584684 -0.33908204432748584
  outer loop
   vertex -17.702823638916016 2.7730419635772705 75.7237548828125
   vertex -40.992027282714844 -7.9882378578186035 84.793731689453125
   vertex -36.280784606933594 0.64105534553527832 98.1202392578125
  endloop
 endfacet
 facet normal -0.044695498636808002 0.99732350747769483 0.057863061049305699
  outer loop
   vertex -36.280784606933594 0.64105534553527832 98.1202392578125
   vertex -21.225898742675781 1.2617529630661011 99.050872802734375
   vertex -17.702823638916016 2.7730419635772705 75.7237548828125
  endloop
 endfacet
 facet normal -0.62894501902669264 -0.70587214824087685 -0.32584148504959104
  outer loop
   vertex -58.335372924804688 -20.888599395751953 118.72097778320312
   vertex -40.683498382568359 -19.820846557617188 82.3359375
   vertex -32.133502960205078 -33.845062255859375 96.21331787109375
  endloop
 endfacet
 facet normal -0.78331125412399527 0.10677742800205406 -0.61239044737157688
  outer loop
   vertex -40.992027282714844 -7.9882378578186035 84.793731689453125
   vertex -40.683498382568359 -19.820846557617188 82.3359375
   vertex -66.450576782226562 -1.8476309776306152 118.42855834960938
  endloop
 endfacet
 facet normal -0.8344650264710799 -0.36202683660281765 -0.41545720498744126
  outer loop
   vertex -40.683498382568359 -19.820846557617188 82.3359375
   vertex -58.335372924804688 -20.888599395751953 118.72097778320312
   vertex -66.450576782226562 -1.8476309776306152 118.42855834960938
  endloop
 endfacet
 facet normal 0.037480143588024331 -0.97013681513927363 0.23964515173073689
  outer loop
   vertex -32.133502960205078 -33.845062255859375 96.21331787109375
   vertex -16.350048065185547 -34.534496307373047 90.953826904296875
   vertex -36.705604553222656 -25.501302719116211 130.70578002929688
  endloop
 endfacet
 facet normal -0.34774638630884197 0.83830945679671909 -0.41989249273395118
  outer loop
   vertex -50.390792846679688 7.4216394424438477 123.34320068359375
   vertex -36.280784606933594 0.64105534553527832 98.1202392578125
   vertex -40.992027282714844 -7.9882378578186035 84.793731689453125
  endloop
 endfacet
 facet normal 0.78553979430310283 0.017223106481851876 0.61857141557733941
  outer loop
   vertex -4.4205703735351562 -20.29218864440918 98.104766845703125
   vertex -12.759517669677734 -6.378974437713623 108.30722045898438
   vertex -35.600574493408203 -13.330903053283691 137.50723266601562
  endloop
 endfacet
 facet normal 0.22473011453650052 -0.91900926823837359 0.32391100708741011
  outer loop
   vertex -10.260116577148438 -30.399114608764648 98.461639404296875
   vertex -36.705604553222656 -25.501302719116211 130.70578002929688
   vertex -16.350048065185547 -34.534496307373047 90.953826904296875
  endloop
 endfacet
 facet normal -0.35369053642407422 0.8356290496547335 -0.42027026520701816
  outer loop
   vertex -50.390792846679688 7.4216394424438477 123.34320068359375
   vertex -40.992027282714844 -7.9882378578186035 84.793731689453125
   vertex -66.450576782226562 -1.8476309776306152 118.42855834960938
  endloop
 endfacet
 facet normal -0.0228888465137988 0.9621768670634514 -0.27146229423849877
  outer loop
   vertex -50.390792846679688 7.4216394424438477 123.34320068359375
   vertex -21.225898742675781 1.2617529630661011 99.050872802734375
   vertex -36.280784606933594 0.64105534553527832 98.1202392578125
  endloop
 endfacet
 facet normal 0.68784924116480872 -0.37548938829890438 0.62118527083625497
  outer loop
   vertex -4.4205703735351562 -20.29218864440918 98.104766845703125
   vertex -36.705604553222656 -25.501302719116211 130.70578002929688
   vertex -10.260116577148438 -30.399114608764648 98.461639404296875
  endloop
 endfacet
 facet normal 0.68163761552633428 -0.40313465204803178 0.61061658462384216
  outer loop
   vertex -4.4205703735351562 -20.29218864440918 98.104766845703125
   vertex -35.600574493408203 -13.330903053283691 137.50723266601562
   vertex -36.705604553222656 -25.501302719116211 130.70578002929688
  endloop
 endfacet
 facet normal -0.44804751531921416 -0.89398259086686038 -0.0069678722185836919
  outer loop
   vertex -58.335372924804688 -20.888599395751953 118.72097778320312
   vertex -32.133502960205078 -33.845062255859375 96.21331787109375
   vertex -53.50286865234375 -23.416057586669922 132.25625610351562
  endloop
 endfacet
 facet normal 0.16062567629944768 0.98536706514864147 -0.057018760366198629
  outer loop
   vertex -21.225898742675781 1.2617529630661011 99.050872802734375
   vertex -50.390792846679688 7.4216394424438477 123.34320068359375
   vertex -46.7860107421875 7.2470483779907227 130.48092651367188
  endloop
 endfacet
 facet normal -0.099986622634413283 -0.97004347244619316 0.22140085107942784
  outer loop
   vertex -32.133502960205078 -33.845062255859375 96.21331787109375
   vertex -36.705604553222656 -25.501302719116211 130.70578002929688
   vertex -53.50286865234375 -23.416057586669922 132.25625610351562
  endloop
 endfacet
 facet normal -0.40390964260246026 0.86208187135574099 -0.30605856905588597
  outer loop
   vertex -66.450576782226562 -1.8476309776306152 118.42855834960938
   vertex -72.129432678222656 3.3410909175872803 140.5382080078125
   vertex -50.390792846679688 7.4216394424438477 123.34320068359375
  endloop
 endfacet
 facet normal 0.45944424233414599 0.86320517108383232 0.20925539610756566
  outer loop
   vertex -21.225898742675781 1.2617529630661011 99.050872802734375
   vertex -46.7860107421875 7.2470483779907227 130.48092651367188
   vertex -35.680622100830078 -0.028067523613572121 136.10855102539062
  endloop
 endfacet
 facet normal 0.50486130243146732 0.83311086657102118 0.22592332617170052
  outer loop
   vertex -12.759517669677734 -6.378974437713623 108.30722045898438
   vertex -21.225898742675781 1.2617529630661011 99.050872802734375
   vertex -35.680622100830078 -0.028067523613572121 136.10855102539062
  endloop
 endfacet
 facet normal 0.77749626415652207 0.070385275920294713 0.62493637448645589
  outer loop
   vertex -35.680622100830078 -0.028067523613572121 136.10855102539062
   vertex -35.600574493408203 -13.330903053283691 137.50723266601562
   vertex -12.759517669677734 -6.378974437713623 108.30722045898438
  endloop
 endfacet
 facet normal -0.90980010961863067 -0.38993746022488623 -0.14217080449689007
  outer loop
   vertex -58.335372924804688 -20.888599395751953 118.72097778320312
   vertex -72.129432678222656 3.3410909175872803 140.5382080078125
   vertex -66.450576782226562 -1.8476309776306152 118.42855834960938
  endloop
 endfacet
 facet normal -0.1190170052144093 0.9893065345156864 0.08430618740256314
  outer loop
   vertex -50.390792846679688 7.4216394424438477 123.34320068359375
   vertex -72.129432678222656 3.3410909175872803 140.5382080078125
   vertex -46.7860107421875 7.2470483779907227 130.48092651367188
  endloop
 endfacet
 facet normal -0.87550565868101404 -0.48290000771542307 -0.017245989851783477
  outer loop
   vertex -72.129432678222656 3.3410909175872803 140.5382080078125
   vertex -58.335372924804688 -20.888599395751953 118.72097778320312
   vertex -66.550888061523438 -6.9428601264953613 145.29714965820312
  endloop
 endfacet
 facet normal -0.7236001252676364 -0.67751199825695307 0.13183455893858467
  outer loop
   vertex -53.50286865234375 -23.416057586669922 132.25625610351562
   vertex -66.550888061523438 -6.9428601264953613 145.29714965820312
   vertex -58.335372924804688 -20.888599395751953 118.72097778320312
  endloop
 endfacet
 facet normal 0.33725622031268615 0.84142189160175451 0.42221729262753571
  outer loop
   vertex -35.680622100830078 -0.028067523613572121 136.10855102539062
   vertex -46.7860107421875 7.2470483779907227 130.48092651367188
   vertex -63.130943298339844 3.0902962684631348 151.8206787109375
  endloop
 endfacet
 facet normal -0.023084195432655275 -0.70958566603457329 0.70424094064424991
  outer loop
   vertex -36.705604553222656 -25.501302719116211 130.70578002929688
   vertex -59.442695617675781 -6.3916378021240234 149.21517944335938
   vertex -53.50286865234375 -23.416057586669922 132.25625610351562
  endloop
 endfacet
 facet normal 0.26588924513949336 -0.48856378131598333 0.8310284838111015
  outer loop
   vertex -35.600574493408203 -13.330903053283691 137.50723266601562
   vertex -59.442695617675781 -6.3916378021240234 149.21517944335938
   vertex -36.705604553222656 -25.501302719116211 130.70578002929688
  endloop
 endfacet
 facet normal 0.50256288761403911 0.09339137267412341 0.85948158531936081
  outer loop
   vertex -35.600574493408203 -13.330903053283691 137.50723266601562
   vertex -35.680622100830078 -0.028067523613572121 136.10855102539062
   vertex -63.130943298339844 3.0902962684631348 151.8206787109375
  endloop
 endfacet
 facet normal -0.28886905963604798 -0.7243615181202856 0.62598327250131891
  outer loop
   vertex -66.550888061523438 -6.9428601264953613 145.29714965820312
   vertex -53.50286865234375 -23.416057586669922 132.25625610351562
   vertex -59.442695617675781 -6.3916378021240234 149.21517944335938
  endloop
 endfacet
 facet normal -0.10904892273971381 0.98804917313752105 0.10893651321558284
  outer loop
   vertex -72.129432678222656 3.3410909175872803 140.5382080078125
   vertex -63.130943298339844 3.0902962684631348 151.8206787109375
   vertex -46.7860107421875 7.2470483779907227 130.48092651367188
  endloop
 endfacet
 facet normal 0.41903782727451599 -0.085395073872692157 0.90394412475071173
  outer loop
   vertex -59.442695617675781 -6.3916378021240234 149.21517944335938
   vertex -35.600574493408203 -13.330903053283691 137.50723266601562
   vertex -63.130943298339844 3.0902962684631348 151.8206787109375
  endloop
 endfacet
 facet normal -0.77601056812940683 -0.13593956929853748 0.61589612082753342
  outer loop
   vertex -72.129432678222656 3.3410909175872803 140.5382080078125
   vertex -66.550888061523438 -6.9428601264953613 145.29714965820312
   vertex -63.130943298339844 3.0902962684631348 151.8206787109375
  endloop
 endfacet
 facet normal -0.42138102835967922 -0.38901449671281946 0.81921044322311398
  outer loop
   vertex -66.550888061523438 -6.9428601264953613 145.29714965820312
   vertex -59.442695617675781 -6.3916378021240234 149.21517944335938
   vertex -63.130943298339844 3.0902962684631348 151.8206787109375
  endloop
 endfacet
endsolid
